# xmcd
#
# Track frame offsets:
#	150
#	12826
#	25795
#	38351
#	50213
#	62828
#	76227
#	86927
#	97654
#	108825
#	121264
#	134426
#	150654
#	162468
#	178348
#	192190
#	207792
#	222463
#	237403
#	252226
#	267207
#	281447
#	294875
#	308122
#	321950
#	337351
#
# Disc length: 4700 seconds
#
# Revision: 1
# Processed by: cddbd v1.5.2PL0 Copyright (c) Steve Scherf et al.
# Submitted via: audiograbber 1.83.01
#
DISCID=76125a1a
DTITLE=Mickey Gilley - Too Good to Stop: Greatest Hits 1974-1985
DYEAR=2007
DGENRE=
TTITLE0=Room Full of Rose
TTITLE1=I Overlooked an Orchid
TTITLE2=City Lights
TTITLE3=Window Up Above
TTITLE4=Overnight Sensation
TTITLE5=Don't the Girls All Get Prettier at Closing Time
TTITLE6=Bring It On Home to Me
TTITLE7=Lawdy Miss Clawdy
TTITLE8=She's Pulling Me Back Again
TTITLE9=Honky Tonk Memories
TTITLE10=True Love Ways
TTITLE11=Stand By Me
TTITLE12=That's All That Matters
TTITLE13=A Headache Tomorrow (Or a Heartache Tonight)
TTITLE14=You Don't Know Me
TTITLE15=Lonely Nights
TTITLE16=Tears of the Lonely
TTITLE17=Put Your Dreams Away
TTITLE18=Talk to Me
TTITLE19=Fool For Your Love
TTITLE20=Your Love Shines Through
TTITLE21=You've Really Got a Hold on Me
TTITLE22=Paradise Tonight (with Charly McClain)
TTITLE23=Candy Man (with Charly McClain)
TTITLE24=Too Good to Stop Now
TTITLE25=Your Memory Ain't What It Used to Be
EXTD=
EXTT0=
EXTT1=
EXTT2=
EXTT3=
EXTT4=
EXTT5=
EXTT6=
EXTT7=
EXTT8=
EXTT9=
EXTT10=
EXTT11=
EXTT12=
EXTT13=
EXTT14=
EXTT15=
EXTT16=
EXTT17=
EXTT18=
EXTT19=
EXTT20=
EXTT21=
EXTT22=
EXTT23=
EXTT24=
EXTT25=
PLAYORDER=
